<svg version="1.1" viewBox="0.0 0.0 509.37795275590554 539.5643044619422" fill="none" stroke="none" stroke-linecap="square" stroke-miterlimit="10" xmlns:xlink="http://www.w3.org/1999/xlink" xmlns="http://www.w3.org/2000/svg"><clipPath id="p.0"><path d="m0 0l509.37796 0l0 539.56433l-509.37796 0l0 -539.56433z" clip-rule="nonzero"/></clipPath><g clip-path="url(#p.0)"><path fill="#059669" d="m0 0l509.37796 0l0 539.56433l-509.37796 0z" fill-rule="evenodd"/><path fill="#059669" d="m9.303149 106.36483l490.77164 0l0 326.83463l-490.77164 0z" fill-rule="evenodd"/><path stroke="#ffffff" stroke-width="16.0" stroke-linejoin="round" stroke-linecap="butt" d="m9.303149 106.36483l490.77164 0l0 326.83463l-490.77164 0z" fill-rule="evenodd"/><path fill="#059669" d="m41.44488 137.08923l426.4882 0l0 265.38583l-426.4882 0z" fill-rule="evenodd"/><path stroke="#ffffff" stroke-width="16.0" stroke-linejoin="round" stroke-linecap="butt" d="m41.44488 137.08923l426.4882 0l0 265.38583l-426.4882 0z" fill-rule="evenodd"/><path fill="#059669" d="m90.82284 272.2206l0 0c0 -49.009842 73.36184 -88.74017 163.85828 -88.74017l0 0c90.496414 0 163.85826 39.73033 163.85826 88.74017l0 0c0 49.009827 -73.36185 88.74014 -163.85826 88.74014l0 0c-90.49643 0 -163.85828 -39.730316 -163.85828 -88.74014z" fill-rule="evenodd"/><path stroke="#ffffff" stroke-width="16.0" stroke-linejoin="round" stroke-linecap="butt" d="m90.82284 272.2206l0 0c0 -49.009842 73.36184 -88.74017 163.85828 -88.74017l0 0c90.496414 0 163.85826 39.73033 163.85826 88.74017l0 0c0 49.009827 -73.36185 88.74014 -163.85826 88.74014l0 0c-90.49643 0 -163.85828 -39.730316 -163.85828 -88.74014z" fill-rule="evenodd"/><path fill="#000000" fill-opacity="0.0" d="m190.68898 181.04199l127.999985 0l0 177.48032l-127.999985 0z" fill-rule="evenodd"/><path fill="#ffffff" d="m251.43507 321.64902l0 -9.84375q-7.375 -0.9375 -12.0 -3.3125q-4.625 -2.390625 -7.984375 -7.6875q-3.359375 -5.3125 -3.90625 -12.96875l9.890625 -1.859375q1.15625 7.9375 4.046875 11.65625q4.15625 5.25 9.953125 5.84375l0 -31.328125q-6.0625 -1.15625 -12.40625 -4.703125q-4.703125 -2.625 -7.25 -7.265625q-2.546875 -4.65625 -2.546875 -10.5625q0 -10.5 7.4375 -17.015625q4.984375 -4.375 14.765625 -5.359375l0 -4.703125l5.7968597 0l0 4.703125q8.59375 0.828125 13.625 5.03125q6.453125 5.359375 7.765625 14.71875l-10.171875 1.53125q-0.875 -5.796875 -3.640625 -8.890625q-2.765625 -3.09375 -7.578125 -4.078125l0 28.390625q7.4375 1.859375 9.84375 2.890625q4.59375 2.03125 7.484375 4.9375q2.90625 2.890625 4.46875 6.890625q1.5625 3.984375 1.5625 8.625q0 10.234375 -6.515625 17.078125q-6.5 6.828125 -16.84375 7.328125l0 9.953125l-5.7968597 0zm0 -86.203125q-5.734375 0.875 -9.046875 4.59375q-3.3125 3.71875 -3.3125 8.8125q0 5.03125 2.8125 8.421875q2.828125 3.390625 9.546875 5.40625l0 -27.234375zm5.7968597 68.03125q5.75 -0.703125 9.484375 -4.96875q3.75 -4.265625 3.75 -10.5625q0 -5.359375 -2.65625 -8.609375q-2.640625 -3.25 -10.578125 -5.828125l0 29.96875z" fill-rule="nonzero"/><path fill="#000000" fill-opacity="0.0" d="m188.12204 269.78217l0 0c0 -42.860794 29.80304 -77.60631 66.56694 -77.60631l0 0c17.654648 0 34.586197 8.176346 47.06993 22.730347c12.483704 14.554016 19.49701 34.293472 19.49701 54.87596l0 0c0 42.86075 -29.80304 77.60629 -66.56694 77.60629l0 0c-36.7639 0 -66.56694 -34.745544 -66.56694 -77.60629z" fill-rule="evenodd"/><path stroke="#ffffff" stroke-width="16.0" stroke-linejoin="round" stroke-linecap="butt" d="m188.12204 269.78217l0 0c0 -42.860794 29.80304 -77.60631 66.56694 -77.60631l0 0c17.654648 0 34.586197 8.176346 47.06993 22.730347c12.483704 14.554016 19.49701 34.293472 19.49701 54.87596l0 0c0 42.86075 -29.80304 77.60629 -66.56694 77.60629l0 0c-36.7639 0 -66.56694 -34.745544 -66.56694 -77.60629z" fill-rule="evenodd"/></g></svg>